<svg xmlns="http://www.w3.org/2000/svg" viewBox="0 0 104.68 97.92"><defs><style>.cls-1{fill:#edeced;}.cls-2{fill:#bf7777;}</style></defs><g id="Layer_2" data-name="Layer 2"><g id="Layer_1-2" data-name="Layer 1"><circle class="cls-1" cx="44.81" cy="44.81" r="44.81"/><path class="cls-2" d="M93.65,21.48a47.05,47.05,0,0,0-5.23-5.24,1.26,1.26,0,0,0-1.76.14,1.24,1.24,0,0,0,.14,1.76,44.59,44.59,0,0,1,5,5,43.9,43.9,0,1,1-61.88-5,1.25,1.25,0,1,0-1.62-1.9,46.4,46.4,0,1,0,65.4,5.29Z"/><path class="cls-2" d="M83.09,76.55a35.65,35.65,0,0,1-50.15,0,1.25,1.25,0,0,0-1.76,1.77,38,38,0,0,0,53.68,0,1.25,1.25,0,0,0-1.77-1.77Z"/><path class="cls-2" d="M90.27,73.39a2.18,2.18,0,1,0-3.13,0A2.21,2.21,0,0,0,90.27,73.39Z"/><path class="cls-2" d="M69.35,45.15a1.34,1.34,0,0,0-1.51,1.12A1.33,1.33,0,0,0,69,47.78C79.08,49.29,84.38,52.53,84.38,55c0,3.77-11.47,8-26.82,8s-26.82-4.22-26.82-8c0-2.53,5.61-5.85,16.33-7.3A1.33,1.33,0,1,0,46.71,45c-9,1.22-18.62,4.47-18.62,9.93,0,6.91,15.18,10.64,29.47,10.64S87,61.86,87,55C87,50.48,80.42,46.81,69.35,45.15Z"/><path class="cls-2" d="M53.71,48.21a4.65,4.65,0,0,0,4.06,2.35h0a4.65,4.65,0,0,0,4.07-2.35l12.1-21.09a14.62,14.62,0,0,0,1.89-7.2c0-8.89-8.09-16.13-18-16.13s-18,7.24-18,16.13a14.69,14.69,0,0,0,1.9,7.21ZM57.8,6.45c8.48,0,15.38,6,15.38,13.47a12,12,0,0,1-1.55,5.89L59.54,46.88a2,2,0,0,1-1.77,1h0a2,2,0,0,1-1.76-1L44,25.82a11.92,11.92,0,0,1-1.56-5.9C42.41,12.49,49.31,6.45,57.8,6.45Z"/><path class="cls-2" d="M57.86,25.82A5.79,5.79,0,1,0,52.06,20,5.79,5.79,0,0,0,57.86,25.82Z"/></g></g></svg>