<svg xmlns="http://www.w3.org/2000/svg" viewBox="0 0 94.4 104.45"><defs><style>.cls-1{fill:#edeced;}.cls-2{fill:#bf7777;}</style></defs><g id="Layer_2" data-name="Layer 2"><g id="Layer_1-2" data-name="Layer 1"><circle class="cls-1" cx="48.73" cy="44.81" r="44.81"/><path class="cls-2" d="M47.94,34.76H38.43a1.24,1.24,0,0,0-1.17.85,1.22,1.22,0,0,0-.16.57V55.76H31.61a1.25,1.25,0,0,0,0,2.5H37.1V64H31.61a1.25,1.25,0,0,0,0,2.5H37.1V79.57a1.25,1.25,0,0,0,2.5,0V66.48H51.49a1.25,1.25,0,0,0,0-2.5H39.6V58.26h8.34a11.75,11.75,0,0,0,0-23.5Zm0,21H39.6V37.26h8.34a9.25,9.25,0,0,1,0,18.5Z"/><path class="cls-2" d="M53.38,100.92A43.9,43.9,0,1,1,90.3,57.58a1.25,1.25,0,0,0,2.5,0,46.4,46.4,0,1,0-39,45.81,1.25,1.25,0,1,0-.4-2.47Z"/><path class="cls-2" d="M46.4,22.12a1.25,1.25,0,0,0,0-2.5,38,38,0,0,0-38,38,1.25,1.25,0,0,0,2.5,0A35.5,35.5,0,0,1,46.4,22.12Z"/><path class="cls-2" d="M70,68.84C70,74.44,74.16,79,79.27,79s9.27-4.56,9.27-10.16-4.16-10.15-9.27-10.15S70,63.24,70,68.84Zm16,0c0,4.22-3,7.66-6.77,7.66s-6.77-3.44-6.77-7.66,3-7.65,6.77-7.65S86,64.62,86,68.84Z"/><path class="cls-2" d="M79.27,81c-8.34,0-15.12,8.23-15.12,18.35a22.67,22.67,0,0,0,.19,3,2.51,2.51,0,0,0,2.48,2.17h24.9a2.51,2.51,0,0,0,2.48-2.17,22.68,22.68,0,0,0,.2-3C94.4,89.19,87.61,81,79.27,81Zm12.45,21H66.82a20.78,20.78,0,0,1-.17-2.64c0-8.76,5.65-15.85,12.62-15.85S91.9,90.55,91.9,99.31A19.08,19.08,0,0,1,91.72,102Z"/><ellipse class="cls-2" cx="10.28" cy="64.89" rx="2.18" ry="2.25"/></g></g></svg>