<svg xmlns="http://www.w3.org/2000/svg" viewBox="0 0 103.65 93.28"><defs><style>.cls-1{fill:#edeced;}.cls-2{fill:#bf7777;}</style></defs><g id="Layer_2" data-name="Layer 2"><g id="Layer_1-2" data-name="Layer 1"><circle class="cls-1" cx="58.85" cy="48.47" r="44.81"/><path class="cls-2" d="M92.21,39a1.25,1.25,0,1,0-2.47.4A43.9,43.9,0,1,1,46.4,2.5a1.25,1.25,0,0,0,0-2.5A46.4,46.4,0,1,0,92.21,39Z"/><path class="cls-2" d="M66.24,12.06a5.81,5.81,0,0,0,5.55-6,5.57,5.57,0,1,0-11.1,0A5.81,5.81,0,0,0,66.24,12.06Zm0-9.55A3.32,3.32,0,0,1,69.29,6a3.08,3.08,0,1,1-6.1,0A3.32,3.32,0,0,1,66.24,2.51Z"/><path class="cls-2" d="M59.56,31H72.91a2.5,2.5,0,0,0,2.48-2.17,12.87,12.87,0,0,0,.12-1.75c0-6.06-4.16-11-9.27-11S57,21.06,57,27.12a12.87,12.87,0,0,0,.12,1.75A2.49,2.49,0,0,0,59.56,31Zm6.68-12.42c3.74,0,6.77,3.81,6.77,8.5a11,11,0,0,1-.1,1.42H59.56a11,11,0,0,1-.09-1.42C59.47,22.43,62.5,18.62,66.24,18.62Z"/><path class="cls-2" d="M60.62,52.78a6,6,0,1,0-5.55-6A5.81,5.81,0,0,0,60.62,52.78Zm0-9.54a3.56,3.56,0,1,1-3,3.52A3.32,3.32,0,0,1,60.62,43.24Z"/><path class="cls-2" d="M54,71.76H67.3a2.49,2.49,0,0,0,2.47-2.17,12.76,12.76,0,0,0,.12-1.75c0-6.06-4.16-11-9.27-11s-9.27,4.93-9.27,11a12.76,12.76,0,0,0,.12,1.75A2.49,2.49,0,0,0,54,71.76Zm6.67-12.41c3.74,0,6.77,3.8,6.77,8.49a11,11,0,0,1-.09,1.42H54a11,11,0,0,1-.1-1.42C53.85,63.15,56.88,59.35,60.62,59.35Z"/><path class="cls-2" d="M39,21a5.81,5.81,0,0,0-5.55-6,5.81,5.81,0,0,0-5.55,6,5.81,5.81,0,0,0,5.55,6A5.81,5.81,0,0,0,39,21Zm-8.6,0a3.32,3.32,0,0,1,3-3.53A3.31,3.31,0,0,1,36.52,21a3.31,3.31,0,0,1-3.05,3.52A3.32,3.32,0,0,1,30.42,21Z"/><path class="cls-2" d="M24.2,42.1a12.87,12.87,0,0,0,.12,1.75A2.5,2.5,0,0,0,26.8,46H40.15a2.5,2.5,0,0,0,2.48-2.16,14.68,14.68,0,0,0,.11-1.75c0-6.06-4.16-11-9.27-11S24.2,36,24.2,42.1Zm9.27-8.5c3.74,0,6.77,3.81,6.77,8.5a10.89,10.89,0,0,1-.09,1.41H26.8a10.88,10.88,0,0,1-.1-1.41C26.7,37.41,29.74,33.6,33.47,33.6Z"/><path class="cls-2" d="M10.78,46.63a1.25,1.25,0,0,0-2.5,0,38,38,0,0,0,38,37.95,1.25,1.25,0,0,0,0-2.5A35.5,35.5,0,0,1,10.78,46.63Z"/><ellipse class="cls-2" cx="53.54" cy="82.75" rx="2.25" ry="2.18"/></g></g></svg>