<svg xmlns="http://www.w3.org/2000/svg" viewBox="0 0 41.3 41.17"><defs><style>.cls-1{fill:#fbd1c6;}.cls-2{fill:#fff;}</style></defs><g id="Layer_2" data-name="Layer 2"><g id="Layer_2-2" data-name="Layer 2"><rect class="cls-1" width="41.3" height="41.17" rx="8.48"/><path class="cls-2" d="M27.78,19.88a1.25,1.25,0,0,0-1.25,1.25v8.71l-5.17-4a2.3,2.3,0,0,0-2.82,0l-5.17,4V11H25.73a1.25,1.25,0,1,0,0-2.5H13.18a2.31,2.31,0,0,0-2.31,2.31V30.23a2.31,2.31,0,0,0,3.72,1.83L20,27.92l5.37,4.14A2.31,2.31,0,0,0,29,30.23v-9.1A1.24,1.24,0,0,0,27.78,19.88Z"/><path class="cls-2" d="M35.65,13.4a1.25,1.25,0,0,0-.92-.34h-2.2V10.9A1.28,1.28,0,0,0,32.2,10a1.43,1.43,0,0,0-1.86,0,1.26,1.26,0,0,0-.35.93v2.16H27.8a1.25,1.25,0,0,0-.9.33,1.19,1.19,0,0,0-.36.91,1.17,1.17,0,0,0,.36.9,1.22,1.22,0,0,0,.9.34H30v2.24a1.33,1.33,0,0,0,.34.93,1.26,1.26,0,0,0,.93.36,1.23,1.23,0,0,0,.95-.37,1.29,1.29,0,0,0,.32-.92V15.54h2.2a1.29,1.29,0,0,0,.92-.34,1.36,1.36,0,0,0,0-1.8Z"/></g></g></svg>