<svg xmlns="http://www.w3.org/2000/svg" viewBox="0 0 1183.12 201.29"><defs><style>.cls-1{fill:#fcd3c8;}.cls-2{fill:#252626;}.cls-3{fill:#303030;}.cls-4{fill:#292929;}.cls-5{fill:#222;}.cls-6{fill:#fefefd;}</style></defs><g id="Layer_2" data-name="Layer 2"><g id="Layer_1-2" data-name="Layer 1"><path class="cls-1" d="M149.05,182.08c-5.69-.54-8-4.74-9.91-9.28-3.31-8-8.36-15.09-12.64-22.58-2.49-4.37-6-3-9.55-1.58-6.92,2.73-13.67,6.09-21.5,5.52a18.43,18.43,0,0,1-8.59-2.43c5.25-2.61,9.75-5.15,14.5-7.13s9.23-4.55,13.79-6.94c2.95-1.55,3-3.13,1.83-6A544.06,544.06,0,0,0,91.93,79c-5.21-9.68-8.44-20-8.62-30.87-.21-13.1,6.1-28.39,20.52-34.25,10.59-4.31,20.25-1.18,28.9,5.47,5.48,4.22,9.35,9.92,12.67,15.88,1.95,3.51,3.42,2.23,4.88,0,2.2-3.32,4.09-6.84,6.24-10.19C165,11.84,176.68,2.92,192.44.68,205-1.11,217,.14,226.2,10.67c4.55,5.19,6.26,11.18,6.84,17.74,1.59,18-5.53,33.24-16,47a200.29,200.29,0,0,1-51.32,47.49c-7.68,4.94-15.63,9.47-23.53,14.06-1.88,1.09-2.77,1.8-2.39,4.48,1.66,11.56,6,22.41,8.51,33.73a29.27,29.27,0,0,1,.75,6.89Zm-51-155.89c-1.79.81-2.69,2.39-3.55,4-5.77,11-4.18,22.23-1.06,33.4,1.19,4.25,2,9,6.08,12.06.95-1.74-.17-2.87-.52-4.07a94.07,94.07,0,0,1-4.17-26.4c0-6.66,2.72-12.6,3.22-19a1.17,1.17,0,0,0,.35-.14c.06,0,0-.17.08-.26Zm5,17.13c-.82,7.27,2.16,14.28,4.38,21.35,5.47,17.45,13.43,33.92,20.73,50.64,1.57,3.58,1.58,8.89,5.18,10.29,4.13,1.61,7.37-3,10.76-5.11,21.74-13.64,40.73-30.3,54.91-51.92,5.29-8.07,10-16.54,9-26.82-1.18-12.69-8.44-25.19-26-14.59a74.19,74.19,0,0,0-21.93,19.92c-5.39,7.45-11.53,14.53-12.85,24.28-.62,4.62-4.36,5.4-8.38,4.73s-4.21-3.82-3.83-6.9c.81-6.6,1.2-13.15,0-19.75-1.59-8.54-4.39-16.48-12-21.53-9.2-6.14-19.21-1-20.06,10C103,39.54,103.07,41.21,103.07,43.32Zm111.77,18c8.91-11.22,12.69-22.78,11-35.7-1.62-12.45-6.78-17.74-19-20.41S184,7,174.18,13.62a26.91,26.91,0,0,0-12,17.7c5-3.39,9.13-6.51,13.56-9.2,7.66-4.65,16.08-6.94,24.75-4,10.71,3.59,14.22,12.81,15.5,23C216.77,47.39,215.64,53.78,214.84,61.31Z"/><path class="cls-2" d="M981,53.07c-1.14,1.81-.61,3.64-.61,5.37,0,27.47-.14,55,.08,82.42,0,4.27-1.53,4.67-5.12,4.83-4,.17-4.53-1.27-4.52-4.81q.21-49.71,0-99.41c0-3.46.75-4.47,4.32-4.4,9.6.21,9.64,0,13.34,8.9q15.68,37.62,31.3,75.27l1.68,4c1.92.11,1.72-1.53,2.07-2.36C1034.74,96,1045.94,69.06,1056.84,42c1.59-3.93,3.57-5.09,7.6-4.94,8.48.31,8.48.09,8.48,8.63v94.92a5.38,5.38,0,0,1-8.15,4.76c-1.87-1.08-.94-3-.94-4.54q-.09-43,0-85.93V51.76c-2,.8-2.11,2.67-2.68,4-11.85,28.44-23.6,56.93-35.47,85.36-.73,1.75-.63,4.61-3.85,4.39-2.78-.19-2.67-2.69-3.36-4.34q-17.71-42.15-35.27-84.38C982.62,55.53,982.41,54,981,53.07Z"/><path class="cls-3" d="M363.86,53V88.72c0,17.47-.14,35,.11,52.42.06,4.05-1.45,4.53-4.89,4.56s-4.88-.63-4.86-4.6c.18-32.62.07-65.24.18-97.86,0-2-1.53-5.46,1.51-5.86,3.41-.44,7.3-1.61,10.26,2.6,7.53,10.75,15.55,21.15,23.38,31.69L431.42,128c1.17-1.77.67-3.59.68-5.24,0-27,.13-53.92-.08-80.88,0-4.14,1.32-4.78,5-4.84s4.7.93,4.68,4.7c-.16,32.78-.06,65.57-.16,98.35,0,1.83,1.57,5-1.68,5.33-3,.26-6.57,1.61-9.12-2-5.89-8.25-12-16.35-18-24.51Q390,88,367.19,57.14C366.43,56.1,365.58,55.11,363.86,53Z"/><path class="cls-1" d="M332.05,189.21c4.56.31,9.13.45,13.66.94,14.85,1.61,29.73,2.36,44.65,3.06,39.78,1.86,79.58.89,119.35.6,22.91-.16,45.85-1.09,68.76-1.95,26.09-1,52.19-1.12,78.26-2.07,24.64-.9,49.26-.69,73.88-.58,24.42.11,48.84,1.07,73.26,2,10,.37,20,1.54,30,2.91-1.63,0-3.25,0-4.88,0-21.16,0-42.33-.47-63.47.18-14.13.43-28.3.05-42.37,1.05-11.49.82-23,.18-34.4.82-20.24,1.14-40.52,1.3-60.75,2.21-11,.5-22,0-32.89.81-16,1.15-31.95.29-47.88,1.06-36.45,1.78-72.91.89-109.36.6-21.19-.16-42.39-2.1-63.52-3.91A205.69,205.69,0,0,1,332.05,189.21Z"/><path class="cls-4" d="M708.77,90.9c.52-22.19,8.48-40.8,29.45-50.3,34.71-15.73,71.8,4,75.85,43.25,1.92,18.6-1.87,35.48-15.5,49-15.37,15.26-34.21,18-54,12-19.34-5.78-30.27-20.06-34.53-39.56A64,64,0,0,1,708.77,90.9Zm52-46.83c-20.37.51-34.83,11.76-40.27,31.49a62.81,62.81,0,0,0-.49,30.1c3.8,17.85,17.12,30.37,34.88,33,18.55,2.79,34.65-4.83,43.69-21.07,6.4-11.5,7.21-23.92,5.37-36.76C800.84,58.94,782.87,43.52,760.8,44.07Z"/><path class="cls-4" d="M930,145.07c-7.17,1.57-11.87.21-15.77-6.24-7.21-11.93-15.62-23.13-23.35-34.75a6.17,6.17,0,0,0-6.07-3.15c-5.32.21-10.67.27-16,0-3.41-.18-4.54.73-4.47,4.33.24,12-.05,24,.17,36,.07,3.53-1,4.6-4.45,4.43-3.12-.14-5.09,0-5.06-4.35.21-33.31.1-66.61.15-99.92,0-1.67-1.2-4.31,2.36-4.22,14.81.36,29.71-1.23,44.42.74C918.36,40.11,928.7,52,929,67.35c.29,17.81-8.49,28.78-25.93,32.38-1.14.23-2.29.37-4,.65ZM864.4,68.72c0,6.82,0,13.64,0,20.46,0,1.88.16,3.17,2.6,3.13,10.82-.15,21.67.34,32.44-.38,11.81-.8,19.65-10.49,19.66-22.89s-7.78-21.65-19.63-22.92c-10.61-1.14-21.28-.2-31.91-.55-2.91-.09-3.2,1.38-3.17,3.69C864.46,55.74,864.4,62.23,864.4,68.72Z"/><path class="cls-2" d="M313.48,91.35c0,16.48-.1,33,.08,49.45,0,3.5-.52,4.9-4.53,4.85-20-.23-40-.18-60,0-3.35,0-4.6-.65-4.61-4.31S245.63,137,249,137c17,.17,34,0,51,.17,3.59,0,4.36-1,4.3-4.42q-.34-17.24,0-34.47c.06-3.35-1-4.13-4.19-4.1-16.66.15-33.32,0-50,.14-3.26,0-4.63-.48-4.64-4.23S247,85.92,250.14,86c16.66.13,33.32,0,50,.14,3.3,0,4.2-.9,4.14-4.16q-.31-16,0-32c.07-3.44-.82-4.47-4.37-4.43-16.82.19-33.65,0-50.47.15-3.38,0-4.92-.34-5-4.43-.1-4.6,2.33-4.1,5.22-4.1,19.66,0,39.32.12,59-.06,3.79,0,5,.77,5,4.81C313.33,58.38,313.48,74.87,313.48,91.35Z"/><path class="cls-2" d="M1114.06,90.82c0-16.32.16-32.65-.12-49-.07-4.17,1.37-4.8,5-4.77,19.66.17,39.32.1,59,.06,2.92,0,5.21-.44,5.15,4.11-.06,4.17-1.62,4.44-4.95,4.42-16.5-.14-33,.12-49.49-.18-4.57-.09-5.56,1.33-5.42,5.61.31,10.15.23,20.31,0,30.47-.06,3.41.83,4.55,4.41,4.51,16.66-.18,33.33,0,50-.16,3.4,0,4.46.68,4.52,4.29.07,3.9-1.56,4.13-4.68,4.11-16.66-.13-33.32,0-50-.13-3.24,0-4.31.81-4.25,4.17q.3,17.47,0,35c0,3.1.84,3.86,3.89,3.83,17.16-.15,34.32,0,51.48-.16,3.51,0,4.38.87,4.4,4.35,0,3.69-1.25,4.28-4.56,4.26q-29.74-.23-59.49,0c-3.76,0-5.12-.72-5-4.85C1114.21,124.13,1114.06,107.47,1114.06,90.82Z"/><path class="cls-5" d="M.08,91.11c0-16.64.1-33.28-.08-49.92,0-3.26.84-4.12,4.1-4.09q30.47.23,60.94,0c3,0,4.45.39,4.28,3.94-.14,3.08-.27,4.69-4.18,4.64-17.15-.24-34.3,0-51.45-.17-3.34,0-4.66.65-4.57,4.33q.39,16,0,32c-.09,3.73,1.3,4.31,4.58,4.28,16.65-.15,33.31,0,50-.15,3.27,0,4.57.49,4.57,4.2s-1.3,4.23-4.58,4.2c-16.48-.17-33,.08-49.45-.18-4.3-.07-5.19,1.3-5.08,5.31.27,11,.31,22,0,32.95-.13,4.15,1.33,4.8,5,4.77,17-.19,34,0,50.95-.15,3.07,0,4.38.51,4.26,4-.12,3.15-.37,4.65-4.22,4.6-20.32-.21-40.63-.17-60.95,0-3.18,0-4.2-.7-4.16-4.05C.18,124.73.08,107.92.08,91.11Z"/><path class="cls-5" d="M599.82,91.11c0-16.64.09-33.28-.08-49.91,0-3.27.85-4.12,4.1-4.1q30.46.23,60.94,0c3.06,0,4.36.49,4.27,4-.09,3.24-.54,4.63-4.29,4.59-17.15-.21-34.3,0-51.44-.18-3.47,0-4.5.87-4.42,4.39.24,10.64.27,21.3,0,31.94-.09,3.71,1.22,4.28,4.53,4.25,16.65-.17,33.3,0,49.94-.15,3.32,0,4.54.62,4.6,4.28,0,4-1.7,4.12-4.77,4.1-16.64-.12-33.29.05-49.94-.15-3.57,0-4.39,1-4.34,4.43.19,14.31-.09,28.62.19,42.93.08,4-1.64,4.09-4.67,4.08s-4.78-.07-4.72-4.09C600,124.72,599.82,107.92,599.82,91.11Z"/><path class="cls-4" d="M525.64,95.48c0,15.3-.18,30.61.11,45.91.09,4.45-2.18,4.13-5.18,4.24-3.17.12-4.66-.31-4.64-4.18.19-30.28,0-60.55.21-90.83,0-4.23-1.1-5.25-5.19-5.09-8.81.33-17.65-.05-26.46.18-3.38.08-4.26-1.05-4.16-4.26.1-2.87.26-4.41,3.94-4.38q36.69.27,73.4,0c3.6,0,3.52,1.6,3.51,4.16,0,2.71.12,4.65-3.8,4.51-9.14-.34-18.31.06-27.45-.2-3.63-.1-4.4,1.14-4.37,4.53C525.74,65.2,525.64,80.34,525.64,95.48Z"/><path class="cls-1" d="M149.07,182.07l.42.23c-.14-.08-.29-.15-.44-.22Z"/><path class="cls-6" d="M98.07,26.19l.43-.41c0,.09,0,.22-.08.26a1.17,1.17,0,0,1-.35.14Z"/></g></g></svg>