<svg xmlns="http://www.w3.org/2000/svg" viewBox="0 0 29.23 56.94"><defs><style>.cls-1{fill:#929497;}</style></defs><g id="Layer_2" data-name="Layer 2"><g id="Layer_1-2" data-name="Layer 1"><path class="cls-1" d="M28.69,14.83a1.41,1.41,0,0,0-2,0L14.23,27.28a1.39,1.39,0,0,0-.37,1.19,1.41,1.41,0,0,0,.37,1.2L26.68,42.11a1.42,1.42,0,1,0,2-2L17,28.47,28.69,16.83A1.42,1.42,0,0,0,28.69,14.83Z"/><path class="cls-1" d="M28.47,55.94A27.47,27.47,0,0,1,28.47,1h.26a.5.5,0,1,0,0-1h-.26a28.47,28.47,0,1,0,.05,56.94.48.48,0,0,0,.48-.5A.53.53,0,0,0,28.47,55.94Z"/></g></g></svg>