<svg xmlns="http://www.w3.org/2000/svg" viewBox="0 0 25.64 25.64"><defs><style>.cls-1{fill:#969595;fill-rule:evenodd;}</style></defs><g id="Layer_2" data-name="Layer 2"><g id="Layer_1-2" data-name="Layer 1"><g id="Layer_2-2" data-name="Layer 2"><g id="Layer_1-2-2" data-name="Layer 1-2"><path class="cls-1" d="M0,0V25.64H25.64V0ZM24.4,24.4H1.25V1.25H24.4Z"/><path class="cls-1" d="M5.42,21.5H7.08V17.79a13.22,13.22,0,0,0,1.78-.15V21.5h1.66V17.3a15.11,15.11,0,0,0,3.3-1.3l2.31,5.53h1.65l-2.65-6.34a16.52,16.52,0,0,0,1.4-1.1l3.1,7.44h1.65L17.7,12.91a14.82,14.82,0,0,0,3.79-8.76H19.83a13.21,13.21,0,0,1-5.35,9.44l-.74-1.77a10.93,10.93,0,0,0,4-7.67H16.12a9.23,9.23,0,0,1-3.05,6.07h0a9,9,0,0,1-1.26.95h0a9.46,9.46,0,0,1-1.3.68V4.15H8.86v8.22a9.71,9.71,0,0,1-1.78.2V4.15H5.42v8.31a9.36,9.36,0,0,1-1.27-.3v1.72c.42.1.84.19,1.27.25v2A6.82,6.82,0,0,1,4.15,16v1.68c.42.07.84.12,1.27.16Zm5.1-7.89a11.76,11.76,0,0,0,1.94-.9l.72,1.72a13.36,13.36,0,0,1-2.66,1.15h0Zm-3.44.61a10.62,10.62,0,0,0,1.78-.17V16a13.25,13.25,0,0,1-1.78.18Z"/></g></g></g></g></svg>