<svg xmlns="http://www.w3.org/2000/svg" viewBox="0 0 41.3 41.17"><defs><style>.cls-1{fill:#fbd1c6;}.cls-2{fill:#fff;}</style></defs><g id="Layer_2" data-name="Layer 2"><g id="Layer_2-2" data-name="Layer 2"><rect class="cls-1" width="41.3" height="41.17" rx="8.48"/><path class="cls-2" d="M31.45,12.85a6.33,6.33,0,0,0-8.4.67l-2,2a.52.52,0,0,1-.73,0l-2-2a6.34,6.34,0,0,0-8.41-.67,6.1,6.1,0,0,0-.46,9l2.59,2.59v0l8.13,8.1a.72.72,0,0,0,1,0l8.13-8.1,0,0,2.6-2.59A6.1,6.1,0,0,0,31.45,12.85Z"/></g></g></svg>