<svg xmlns="http://www.w3.org/2000/svg" viewBox="0 0 41.3 41.17"><defs><style>.cls-1{fill:#fbd1c6;}.cls-2{fill:#fff;}</style></defs><g id="Layer_2" data-name="Layer 2"><g id="Layer_2-2" data-name="Layer 2"><rect class="cls-1" width="41.3" height="41.17" rx="8.48"/><path class="cls-2" d="M25.47,27.3a5.45,5.45,0,0,0-2.12.42l-6-5.1a3.49,3.49,0,0,0-.11-3.77l6.44-5.47A5.39,5.39,0,0,0,26,13.9c2.63,0,4.76-1.81,4.76-4.05s-2.13-4-4.76-4-4.77,1.81-4.77,4a3.59,3.59,0,0,0,.68,2.08l-6.4,5.42a5.41,5.41,0,0,0-2.44-.57c-2.64,0-4.77,1.81-4.77,4s2.13,4.05,4.77,4.05a5.38,5.38,0,0,0,2.65-.68l5.78,4.9a3.62,3.62,0,0,0-.8,2.25c0,2.24,2.13,4.05,4.77,4.05s4.77-1.81,4.77-4.05S28.1,27.3,25.47,27.3Z"/></g></g></svg>